<svg xmlns="http://www.w3.org/2000/svg" viewBox="0 0 474 160" role="img" aria-label="thinkbot">
  <g transform="translate(4,18) scale(0.95)">
    <path fill="none" stroke="#22D3EE" stroke-width="7" stroke-linejoin="round" stroke-linecap="round"
          d="M24 28h72c12 0 22 10 22 22v38c0 12-10 22-22 22H52l-20 16 3-16H24c-12 0-22-10-22-22V50c0-12 10-22 22-22z"/>
    <circle cx="60" cy="69" r="22" fill="none" stroke="#64748B" stroke-width="3.2"/>
    <circle cx="60" cy="69" r="14" fill="none" stroke="#94A3B8" stroke-width="3.2"/>
    <circle cx="60" cy="69" r="6.5" fill="none" stroke="#CBD5E1" stroke-width="2.6"/>
    <circle cx="60" cy="69" r="3.4" fill="#22D3EE"/>
    <circle cx="76" cy="53" r="3.4" fill="#A78BFA"/>
    <circle cx="82" cy="46" r="1.8" fill="#FBBF24"/>
  </g>
  <g fill="#0F172A">
    <path d="M176.2412109375 65.953125V74.6748046875H150.7236328125V65.953125ZM156.85546875 55.6318359375H168.205078125V95.5458984375Q168.205078125 97.564453125 169.10009765625 98.49755859375Q169.9951171875 99.4306640625 172.08984375 99.4306640625Q172.8515625 99.4306640625 174.05126953125 99.29736328125Q175.2509765625 99.1640625 175.8984375 99.0498046875L177.1552734375 107.6953125Q175.44140625 108.1142578125 173.5751953125 108.28564453125Q171.708984375 108.45703125 169.95703125 108.45703125Q163.482421875 108.45703125 160.1689453125 105.46728515625Q156.85546875 102.4775390625 156.85546875 96.7265625Z"/>
    <path d="M194.06466796875 83.853515625V108.0H182.71505859375V51.251953125H193.91232421875V76.541015625H192.73166015625Q194.44552734375 71.208984375 197.8923046875 68.2763671875Q201.33908203125 65.34375 206.74728515625 65.34375Q211.12716796875 65.34375 214.40255859375 67.248046875Q217.67794921875 69.15234375 219.48703125 72.732421875Q221.29611328125 76.3125 221.29611328125 81.33984375V108.0H209.90841796875V83.3583984375Q209.90841796875 79.359375 207.88986328125 77.13134765625Q205.87130859375 74.9033203125 202.25314453125 74.9033203125Q199.85373046875 74.9033203125 198.0065625 75.95068359375Q196.15939453125 76.998046875 195.11203125 78.978515625Q194.06466796875 80.958984375 194.06466796875 83.853515625Z"/>
    <path d="M229.66892578125 108.0V65.953125H241.01853515625V108.0Z"/>
    <path d="M261.32291015625003 83.853515625V108.0H249.97330078125V65.953125H260.78970703125003L260.94205078125003 76.541015625H259.98990234375003Q261.70376953125003 71.208984375 265.15054687500003 68.2763671875Q268.59732421875003 65.34375 274.00552734375003 65.34375Q278.38541015625003 65.34375 281.66080078125003 67.248046875Q284.93619140625003 69.15234375 286.72623046875003 72.732421875Q288.51626953125003 76.3125 288.51626953125003 81.33984375V108.0H277.16666015625003V83.3583984375Q277.16666015625003 79.359375 275.14810546875003 77.13134765625Q273.12955078125003 74.9033203125 269.51138671875003 74.9033203125Q267.11197265625003 74.9033203125 265.26480468750003 75.95068359375Q263.41763671875003 76.998046875 262.37027343750003 78.978515625Q261.32291015625003 80.958984375 261.32291015625003 83.853515625Z"/>
    <path d="M307.21037109375 95.736328125V82.1015625H308.84806640625L322.78751953125 65.953125H336.00333984375L317.64591796875 87.052734375H314.97990234375ZM296.92716796875 108.0V51.251953125H308.27677734375V108.0ZM323.43498046875 108.0 310.67619140625 89.6044921875 318.25529296875 81.5302734375 336.80314453125 108.0Z"/>
    <path d="M364.39716796874995 108.7236328125Q361.12177734374995 108.7236328125 358.74140624999995 107.63818359375Q356.36103515624995 106.552734375 354.79951171874995 104.85791015625Q353.23798828124995 103.1630859375 352.36201171874995 101.3349609375H351.90498046874995V108.0H340.74580078124995V51.251953125H352.09541015624995V72.7705078125H352.40009765624995Q353.31416015624995 70.9423828125 354.83759765624995 69.24755859375Q356.36103515624995 67.552734375 358.72236328124995 66.4482421875Q361.08369140624995 65.34375 364.47333984374995 65.34375Q369.31025390624995 65.34375 373.21406249999995 67.83837890625Q377.11787109374995 70.3330078125 379.44111328124995 75.15087890625Q381.76435546874995 79.96875 381.76435546874995 87.0146484375Q381.76435546874995 93.9462890625 379.49824218749995 98.783203125Q377.23212890624995 103.6201171875 373.30927734374995 106.171875Q369.38642578124995 108.7236328125 364.39716796874995 108.7236328125ZM361.00751953124995 99.5830078125Q363.97822265624995 99.5830078125 365.99677734374995 98.00244140625Q368.01533203124995 96.421875 369.06269531249995 93.58447265625Q370.11005859374995 90.7470703125 370.11005859374995 86.9765625Q370.11005859374995 83.244140625 369.06269531249995 80.42578125Q368.01533203124995 77.607421875 365.99677734374995 76.0458984375Q363.97822265624995 74.484375 361.00751953124995 74.484375Q358.11298828124995 74.484375 356.03730468749995 76.02685546875Q353.96162109374995 77.5693359375 352.87617187499995 80.36865234375Q351.79072265624995 83.16796875 351.79072265624995 86.9765625Q351.79072265624995 90.78515625 352.89521484374995 93.603515625Q353.99970703124995 96.421875 356.07539062499995 98.00244140625Q358.15107421874995 99.5830078125 361.00751953124995 99.5830078125Z"/>
    <path d="M407.3383007812499 108.837890625Q400.9779492187499 108.837890625 396.3124218749999 106.11474609375Q391.6468945312499 103.3916015625 389.1141796874999 98.49755859375Q386.5814648437499 93.603515625 386.5814648437499 87.12890625Q386.5814648437499 80.578125 389.1141796874999 75.68408203125Q391.6468945312499 70.7900390625 396.3124218749999 68.06689453125Q400.9779492187499 65.34375 407.3383007812499 65.34375Q413.6605664062499 65.34375 418.3260937499999 68.06689453125Q422.9916210937499 70.7900390625 425.5243359374999 75.68408203125Q428.0570507812499 80.578125 428.0570507812499 87.12890625Q428.0570507812499 93.603515625 425.5243359374999 98.49755859375Q422.9916210937499 103.3916015625 418.3260937499999 106.11474609375Q413.6605664062499 108.837890625 407.3383007812499 108.837890625ZM407.3383007812499 99.849609375Q410.3090039062499 99.849609375 412.3466015624999 98.2119140625Q414.3841992187499 96.57421875 415.4506054687499 93.69873046875Q416.5170117187499 90.8232421875 416.5170117187499 87.0908203125Q416.5170117187499 83.3203125 415.4506054687499 80.4638671875Q414.3841992187499 77.607421875 412.3466015624999 75.9697265625Q410.3090039062499 74.33203125 407.3383007812499 74.33203125Q404.3675976562499 74.33203125 402.3109570312499 75.9697265625Q400.2543164062499 77.607421875 399.2069531249999 80.4638671875Q398.1595898437499 83.3203125 398.1595898437499 87.0908203125Q398.1595898437499 90.8232421875 399.2069531249999 93.69873046875Q400.2543164062499 96.57421875 402.2919140624999 98.2119140625Q404.3295117187499 99.849609375 407.3383007812499 99.849609375Z"/>
    <path d="M456.24749999999995 65.953125V74.6748046875H430.72992187499995V65.953125ZM436.86175781249995 55.6318359375H448.21136718749995V95.5458984375Q448.21136718749995 97.564453125 449.10638671874995 98.49755859375Q450.00140624999995 99.4306640625 452.09613281249995 99.4306640625Q452.85785156249995 99.4306640625 454.05755859374995 99.29736328125Q455.25726562499995 99.1640625 455.90472656249995 99.0498046875L457.16156249999995 107.6953125Q455.44769531249995 108.1142578125 453.58148437499995 108.28564453125Q451.71527343749995 108.45703125 449.96332031249995 108.45703125Q443.48871093749995 108.45703125 440.17523437499995 105.46728515625Q436.86175781249995 102.4775390625 436.86175781249995 96.7265625Z"/>
  </g>
  <path transform="translate(227.84,48.45)" d="M7.5 0l2.05 4.85L14.8 6.7l-5.25 2.05L7.5 13.8 5.45 8.75 0.2 6.7l5.25-1.85z" fill="#22D3EE"/>
</svg>
